<?xml version="1.0" encoding="utf-8"?>
<!-- Generator: Adobe Illustrator 16.0.0, SVG Export Plug-In . SVG Version: 6.00 Build 0)  -->
<!DOCTYPE svg PUBLIC "-//W3C//DTD SVG 1.1//EN" "http://www.w3.org/Graphics/SVG/1.1/DTD/svg11.dtd">
<svg version="1.1" xmlns="http://www.w3.org/2000/svg" xmlns:xlink="http://www.w3.org/1999/xlink" x="0px" y="0px" width="500px"
	 height="500px" viewBox="0 0 500 500" enable-background="new 0 0 500 500" xml:space="preserve">
<g id="Layer_1">
	<path fill="none" d="M191.72,174.955l59.038,59.038c24.512-33.071,21.808-79.967-8.176-109.95
		c-32.992-32.993-86.484-32.992-119.477,0c-32.992,32.992-32.992,86.484,0,119.477c29.991,29.99,76.899,32.683,109.973,8.149
		l-59.036-59.036L191.72,174.955z"/>
	<path d="M105.062,106c-42.958,42.958-42.958,112.605,0,155.563c39.973,39.974,103.05,42.741,146.235,8.324
		c0.262-0.209,0.527-0.412,0.789-0.625c2.945-2.392,5.798-4.957,8.539-7.698c2.268-2.269,4.409-4.615,6.438-7.023
		c0.649-0.771,1.283-1.551,1.907-2.335c34.395-43.183,31.621-106.242-8.344-146.206C217.668,63.041,148.019,63.042,105.062,106z
		 M247.217,248.154c-35.539,35.539-93.158,35.539-128.697,0c-35.539-35.538-35.539-93.158,0-128.696
		c35.539-35.539,93.158-35.539,128.697,0C282.755,154.997,282.756,212.616,247.217,248.154z"/>
</g>
<g id="Layer_2">
	
		<rect x="272.436" y="273.901" transform="matrix(0.7071 0.7071 -0.7071 0.7071 273.6505 -112.8303)" width="1.175" height="0.018"/>
	<path d="M272.602,273.501l-10.508-10.508c-0.004,0.004-0.008,0.009-0.012,0.013c-2.742,2.741-5.594,5.306-8.54,7.698
		c-0.261,0.212-0.526,0.416-0.789,0.625l11.011,11.011L272.602,273.501z"/>
	<polygon points="264.594,283.17 264.598,283.167 273.433,274.332 272.602,273.501 263.764,282.34 	"/>
	<path d="M282.269,265.496l0.016-0.016l-0.027-0.027C282.261,265.468,282.266,265.481,282.269,265.496z"/>
	<path d="M270.442,253.64c-0.004,0.005-0.009,0.01-0.012,0.015c0.002,0.001,0.013,0.002,0.032,0.006L270.442,253.64z"/>
	<path d="M269.817,254.429c-2.393,2.946-4.957,5.798-7.698,8.54c-0.004,0.004-0.009,0.008-0.013,0.012l10.508,10.508l8.819-8.819
		l0.831,0.831l0.004-0.004l-11.84-11.84C270.226,253.913,270.025,254.175,269.817,254.429z"/>
	
		<rect x="276.852" y="263.258" transform="matrix(0.7071 0.7071 -0.7071 0.7071 271.8213 -117.2463)" width="1.175" height="12.472"/>
	<polygon points="270.428,253.654 270.429,253.656 270.431,253.654 	"/>
	<path d="M270.463,253.66l11.794,11.793C279.49,255.453,271.053,253.767,270.463,253.66z"/>
	<path d="M270.463,253.66c-0.02-0.004-0.03-0.005-0.032-0.006c0,0-0.001,0.001-0.002,0.002l11.84,11.84
		c-0.003-0.015-0.008-0.028-0.012-0.043L270.463,253.66z"/>
	<polygon points="282.267,265.502 282.269,265.496 282.265,265.5 	"/>
	<path d="M273.445,274.319l-0.013,0.013l-8.835,8.835c0,0,13.186-4.463,17.669-17.665l-0.002-0.002L273.445,274.319z"/>
	<path d="M263.764,282.34l-11.011-11.011c0,0,1.437,8.975,11.821,11.835l-0.818-0.817L263.764,282.34z"/>
	<path d="M263.764,282.34l-0.008,0.007l0.818,0.817c0.007,0.002,0.013,0.004,0.02,0.006L263.764,282.34z"/>
	<path d="M265.567,284.162l-0.003,0.003c-0.007-0.003-0.014-0.005-0.021-0.006l55.093,55.092l82.732,82.732l17.677-17.677
		l-82.732-82.732l-55.076-55.077C278.753,279.699,265.567,284.162,265.567,284.162z"/>
	<path d="M404.43,423.044"/>
	<path d="M403.369,421.983c3.093,3.093,9.55,1.644,14.435-3.241l-5.597-5.598"/>
	<path fill="none" d="M432.742,416.002"/>
	<path d="M421.046,404.307c3.093,3.093,1.643,9.55-3.242,14.436l-5.597-5.598"/>
</g>
</svg>
