<?xml version="1.0" encoding="utf-8"?>
<!-- Generator: Adobe Illustrator 16.0.0, SVG Export Plug-In . SVG Version: 6.00 Build 0)  -->
<!DOCTYPE svg PUBLIC "-//W3C//DTD SVG 1.1//EN" "http://www.w3.org/Graphics/SVG/1.1/DTD/svg11.dtd">
<svg version="1.1" xmlns="http://www.w3.org/2000/svg" xmlns:xlink="http://www.w3.org/1999/xlink" x="0px" y="0px" width="500px"
	 height="500px" viewBox="0 0 500 500" enable-background="new 0 0 500 500" xml:space="preserve">
<g id="Layer_1">
	<path fill="none" d="M191.72,174.955l59.038,59.038c24.512-33.071,21.808-79.967-8.176-109.95
		c-32.992-32.993-86.484-32.992-119.477,0c-32.992,32.992-32.992,86.484,0,119.477c29.991,29.99,76.899,32.683,109.973,8.149
		l-59.036-59.036L191.72,174.955z"/>
	<path d="M105.062,106c-42.958,42.958-42.958,112.605,0,155.563c39.973,39.974,103.05,42.741,146.235,8.324
		c0.262-0.209,0.527-0.412,0.789-0.625c2.945-2.392,5.798-4.957,8.539-7.698c2.268-2.269,4.409-4.615,6.438-7.023
		c0.649-0.771,1.283-1.551,1.907-2.335c34.395-43.183,31.621-106.242-8.344-146.206C217.668,63.041,148.019,63.042,105.062,106z
		 M247.217,248.154c-35.539,35.539-93.158,35.539-128.697,0c-35.539-35.538-35.539-93.158,0-128.696
		c35.539-35.539,93.158-35.539,128.697,0C282.755,154.997,282.756,212.616,247.217,248.154z"/>
</g>
<g id="Layer_2">
	
		<rect x="272.436" y="273.901" transform="matrix(0.7071 0.7071 -0.7071 0.7071 273.6505 -112.8303)" width="1.175" height="0.018"/>
	<path d="M282.269,265.496l0.016-0.016l-0.027-0.027C282.261,265.468,282.266,265.481,282.269,265.496z"/>
	<path d="M270.442,253.64c-0.004,0.005-0.009,0.01-0.012,0.015c0.002,0.001,0.013,0.002,0.032,0.006L270.442,253.64z"/>
	<polygon points="270.428,253.654 270.429,253.656 270.431,253.654 	"/>
	<polygon points="282.267,265.502 282.269,265.496 282.265,265.5 	"/>
	<g>
		<path d="M285.185,268.412l-11.84-11.84c-0.203,0.257-0.403,0.519-0.611,0.772c-2.393,2.946-4.957,5.798-7.698,8.54
			c-0.004,0.004-0.009,0.008-0.013,0.012l10.508,10.508l0.831,0.831l-0.013,0.013l-0.831-0.831l-10.508-10.508
			c-0.004,0.004-0.008,0.009-0.012,0.013c-2.742,2.741-5.594,5.306-8.54,7.698c-0.261,0.212-0.526,0.416-0.789,0.625
			c0,0,1.437,8.975,11.821,11.835l-0.818-0.817l0.008-0.007l0.83,0.83l0.004-0.003c0,0,13.186-4.463,17.669-17.665l-0.002-0.002
			L285.185,268.412z"/>
		<path d="M273.379,256.576l11.794,11.793C282.406,258.369,273.969,256.683,273.379,256.576z"/>
	</g>
	<path d="M263.764,282.34l-0.008,0.007l0.818,0.817c0.007,0.002,0.013,0.004,0.02,0.006L263.764,282.34z"/>
	<path d="M404.43,423.044"/>
	<path fill="none" d="M432.742,416.002"/>
	<g>
		<path d="M345.394,328.601l-55.099-55.1c-4.482,13.204-17.67,17.665-17.67,17.665l-0.003,0.003
			c-0.007-0.003-0.014-0.005-0.021-0.006l55.115,55.114l82.765,82.765l8.844-8.844l8.833-8.833L345.394,328.601z"/>
		<path d="M428.164,411.36l-8.839,8.838l-8.838,8.839c3.093,3.093,9.55,1.644,14.435-3.241
			C429.807,420.91,431.257,414.453,428.164,411.36z"/>
	</g>
</g>
</svg>
